<?xml version="1.0" encoding="UTF-8" standalone="no"?>
<!-- Created with Inkscape (http://www.inkscape.org/) -->

<svg
   version="1.1"
   id="svg1"
   width="107.68924"
   height="90.205208"
   viewBox="0 0 107.68925 90.205208"
   sodipodi:docname="ai-sm.svg"
   inkscape:version="1.4.2 (f4327f4, 2025-05-13)"
   xmlns:inkscape="http://www.inkscape.org/namespaces/inkscape"
   xmlns:sodipodi="http://sodipodi.sourceforge.net/DTD/sodipodi-0.dtd"
   xmlns="http://www.w3.org/2000/svg"
   xmlns:svg="http://www.w3.org/2000/svg">
  <defs
     id="defs1" />
  <sodipodi:namedview
     id="namedview1"
     pagecolor="#505050"
     bordercolor="#eeeeee"
     borderopacity="1"
     inkscape:showpageshadow="0"
     inkscape:pageopacity="0"
     inkscape:pagecheckerboard="0"
     inkscape:deskcolor="#505050"
     inkscape:zoom="0.56909183"
     inkscape:cx="424.36034"
     inkscape:cy="348.80135"
     inkscape:window-width="1920"
     inkscape:window-height="991"
     inkscape:window-x="-9"
     inkscape:window-y="-9"
     inkscape:window-maximized="1"
     inkscape:current-layer="g1"
     borderlayer="true" />
  <g
     inkscape:groupmode="layer"
     inkscape:label="Image"
     id="g1"
     transform="translate(-257.40353,-333.48879)">
    <g
       id="g2"
       transform="matrix(0.13787326,0,0,0.13787326,221.91447,287.5096)">
      <path
         style="fill:#38a5ea;fill-opacity:1"
         d="m 546.10487,985.27007 c -22.11936,-7.81574 -36.64266,-27.03964 -37.85327,-50.1048 -2.73482,-52.10506 59.08576,-80.0067 95.83775,-43.25471 12.87774,12.87773 19.0716,31.33119 16.12707,48.04755 -3.38778,19.23278 -14.59858,34.46293 -31.48835,42.77774 -8.187,4.03045 -10.57155,4.56507 -21.95629,4.9227 -10.28263,0.32302 -14.31054,-0.14249 -20.66691,-2.38848 z m 308.56175,-15.27013 c 1.72232,-1.83333 3.4315,-3.33333 3.79817,-3.33333 0.36666,0 -0.74251,1.5 -2.46484,3.33333 -1.72233,1.83334 -3.4315,3.33334 -3.79817,3.33334 -0.36667,0 0.74251,-1.5 2.46484,-3.33334 z m -197.02399,-38 c 0,-2.56666 0.27439,-3.61666 0.60976,-2.33333 0.33537,1.28333 0.33537,3.38333 0,4.66667 -0.33537,1.28333 -0.60976,0.23333 -0.60976,-2.33334 z M 1037.9826,737.33329 c 0,-108.89999 0.1577,-153.44999 0.3505,-98.99999 0.1928,54.44999 0.1928,143.54999 0,197.99998 -0.1928,54.45 -0.3505,9.9 -0.3505,-98.99999 z M 941.33328,507.3333 c 1.72232,-1.83333 3.4315,-3.33333 3.79817,-3.33333 0.36666,0 -0.74251,1.5 -2.46484,3.33333 -1.72233,1.83334 -3.4315,3.33334 -3.79817,3.33334 -0.36667,0 0.74251,-1.5 2.46484,-3.33334 z m 25.66756,-62.64108 c -28.00299,-7.88372 -44.39505,-30.52774 -42.74411,-59.04678 1.61609,-27.9169 24.05598,-50.43448 51.86474,-52.04431 56.57733,-3.27521 82.90253,65.8774 38.45353,101.01224 -12.6322,9.98521 -32.76022,14.24944 -47.57416,10.07885 z"
         id="path3" />
      <path
         style="fill:#186ca2;fill-opacity:1"
         d="m 299.4903,985.2608 c -15.22761,-3.80213 -30.00799,-16.27787 -37.00876,-31.23816 -4.7801,-10.21484 -6.4203,-24.86644 -3.909,-34.91835 2.14048,-8.56761 253.6851,-551.18075 259.55697,-559.89678 5.73248,-8.50911 12.7266,-14.17391 24.22531,-19.62098 8.23274,-3.89995 10.08592,-4.25322 22.31181,-4.25322 12.54807,0 13.92274,0.2815 23.34105,4.77965 10.85606,5.18481 20.63482,13.88171 25.86729,23.00553 1.75002,3.05148 60.09117,128.84815 129.64701,279.54814 l 126.46516,273.99998 -0.006,14.66667 c -0.005,13.13481 -0.3815,15.4717 -3.60508,22.37446 -6.98216,14.95113 -22.8298,27.92627 -38.52944,31.54568 -3.45105,0.79561 -29.69372,1.36136 -64.04,1.38059 -54.30548,0.0304 -58.76451,-0.14396 -66.74987,-2.61039 -16.73911,-5.17018 -31.48665,-19.92631 -36.37881,-36.4 -2.57717,-8.67829 -2.57717,-23.9024 0,-32.58069 2.78697,-9.38473 11.1722,-21.40186 19.18122,-27.4892 10.28311,-7.81579 18.60714,-10.5262 35.11479,-11.4338 l 14.30778,-0.78665 -82.18154,-177.72623 C 601.90035,599.85763 564.48569,520.35763 563.95649,520.9404 563.4273,521.52316 517.87133,619.49996 462.721,738.66662 407.57067,857.83328 360.40344,958.46411 357.90493,962.29068 c -5.68152,8.7015 -15.5932,16.63116 -25.56929,20.45625 -8.65868,3.31997 -24.70018,4.54771 -32.84579,2.51387 z m 664.96052,-2.68136 c -14.24123,-4.51386 -26.5551,-15.7112 -33.6287,-30.5795 l -3.48884,-7.33333 V 737.97192 531.27723 l 4.35694,-8.8502 c 12.23808,-24.85908 40.88692,-37.31652 67.07431,-29.16609 15.51597,4.82912 27.16157,15.15613 34.32367,30.43731 l 3.5784,7.63505 v 206.66666 206.66665 l -3.5784,7.63505 c -4.7453,10.12462 -10.6696,17.29272 -19.0791,23.08454 -14.0214,9.65693 -33.0647,12.421 -49.55828,7.19324 z"
         id="path2" />
    </g>
  </g>
</svg>
